# 3ds Max Wavefront OBJ Exporter v0.97b - (c)2007 guruware
# File Created: 09.09.2015 21:57:26

mtllib 3d-model.mtl

#
# object Group_003
#

v  -287.6778 3.2436 101.1664
v  -287.6778 3.2436 -56.5948
v  -1.2404 3.2436 -56.5948
v  -1.2404 3.2436 101.1664
v  -287.6778 145.8879 -56.5948
v  -1.2404 145.8879 -56.5948
v  -287.6778 145.8879 101.1664
v  -1.2404 145.8879 101.1664
# 8 vertices

vn 0.0000 -1.0000 -0.0000
vn 0.0000 0.0000 -1.0000
vn 0.0000 1.0000 -0.0000
vn 0.0000 0.0000 1.0000
vn 1.0000 0.0000 -0.0000
vn -1.0000 0.0000 -0.0000
# 6 vertex normals

vt -2.7643 14.0813 0.0000
vt -2.7643 12.9705 0.0000
vt -1.7642 12.9705 0.0000
vt -1.7642 14.0813 0.0000
vt 1.0000 1.0000 0.0000
vt 2.0000 1.0000 0.0000
vt 2.0000 2.0000 0.0000
vt 1.0000 2.0000 0.0000
vt 2.0104 12.9705 0.0000
vt 2.0104 14.0813 0.0000
vt 1.0104 14.0813 0.0000
vt 1.0104 12.9705 0.0000
vt -3.0000 1.0000 0.0000
vt -2.0000 1.0000 0.0000
vt -2.0000 2.0000 0.0000
vt -3.0000 2.0000 0.0000
vt 14.0000 0.9993 0.0000
vt 14.0000 0.0000 0.0000
vt 15.0000 0.0000 0.0000
vt 15.0000 0.9993 0.0000
vt -2.0000 -0.0000 0.0000
vt -2.0000 1.0007 0.0000
vt -3.0000 1.0007 0.0000
vt -3.0000 -0.0000 0.0000
# 24 texture coords

g Group_003
usemtl wire_006134006
s off
f 1/1/1 2/2/1 3/3/1 4/4/1 
f 3/5/2 2/6/2 5/7/2 6/8/2 
f 5/9/3 7/10/3 8/11/3 6/12/3 
f 1/13/4 4/14/4 8/15/4 7/16/4 
f 8/17/5 4/18/5 3/19/5 6/20/5 
f 1/21/6 7/22/6 5/23/6 2/24/6 
# 6 polygons

#
# object Group_001
#

v  136.4755 0.0000 132.3020
v  287.6778 0.0000 132.3020
v  287.6778 132.3020 132.3020
v  136.4755 132.3020 132.3020
v  287.6778 0.0000 -132.3020
v  136.4755 0.0000 -132.3020
v  136.4755 132.3020 -132.3020
v  287.6778 132.3020 -132.3020
# 8 vertices

vn 0.0000 0.0000 1.0000
vn 0.0000 0.0000 -1.0000
vn 1.0000 0.0000 -0.0000
vn -1.0000 0.0000 -0.0000
vn 0.0000 -1.0000 -0.0000
vn 0.0000 1.0000 -0.0000
# 6 vertex normals

vt 46.0000 0.0088 0.0000
vt 46.9999 0.0088 0.0000
vt 46.9999 0.9994 0.0000
vt 46.0000 0.9994 0.0000
vt -9.0000 0.0000 0.0000
vt -8.0000 0.0000 0.0000
vt -8.0000 1.0018 0.0000
vt -9.0000 1.0018 0.0000
vt -1.0000 2.0000 0.0000
vt -1.0000 1.0000 0.0000
vt 0.0000 1.0000 0.0000
vt -0.0000 2.0000 0.0000
vt 0.0000 0.0000 0.0000
vt -1.0000 0.0000 0.0000
vt 1.0000 1.0000 0.0000
vt -0.0000 1.0000 0.0000
vt 1.0000 1.9999 0.0000
# 17 texture coords

g Group_001
usemtl wire_006134006
s off
f 9/25/7 10/26/7 11/27/7 12/28/7 
f 13/29/8 14/30/8 15/31/8 16/32/8 
f 11/33/9 10/34/9 13/35/9 16/36/9 
f 9/37/10 12/35/10 15/34/10 14/38/10 
f 9/39/11 14/40/11 13/36/11 10/41/11 
f 15/40/12 12/39/12 11/41/12 16/36/12 
# 6 polygons

